<svg width="20" height="20" viewBox="0 0 20 20" fill="none" xmlns="http://www.w3.org/2000/svg">
<path d="M4.78261 0C2.14125 0 0 2.14125 0 4.78261V15.2174C0 17.8588 2.14125 20 4.78261 20H18.6957C19.416 20 20 19.416 20 18.6957C20 17.9753 19.416 17.3913 18.6957 17.3913H4.78261C3.58199 17.3913 2.6087 16.418 2.6087 15.2174V4.78261C2.6087 3.58199 3.58199 2.6087 4.78261 2.6087H18.6957C19.416 2.6087 20 2.02472 20 1.30435C20 0.583976 19.416 0 18.6957 0H4.78261Z" fill="#8161DF"/>
<path d="M4.34783 13.0435V15.6522H19.1304V13.0435H4.34783Z" fill="#8161DF"/>
<path d="M4.34783 8.69565H19.1304V11.3043H4.34783V8.69565Z" fill="#8161DF"/>
<path d="M4.34783 4.34783V6.95652H19.1304V4.34783H4.34783Z" fill="#8161DF"/>
</svg>
