<svg width="100" height="100" viewBox="0 0 100 100" fill="none" xmlns="http://www.w3.org/2000/svg">
<rect width="100" height="100" rx="5" fill="#8161DF"/>
<path d="M98.5355 48.5355L76.4645 26.4645C75.5268 25.5268 74.255 25 72.9289 25H38.7377C37.4117 25 36.1399 25.5268 35.2022 26.4645L29.6134 32.0533C28.7863 32.8804 28.2753 33.9713 28.1694 35.1361L25.212 67.6677C25.0777 69.1455 25.6067 70.6067 26.656 71.656L53.5355 98.5355C54.4732 99.4732 55.745 100 57.0711 100H95C97.7614 100 100 97.7614 100 95V52.0711C100 50.745 99.4732 49.4732 98.5355 48.5355Z" fill="#6047A7"/>
<path d="M36.0871 23.3333C29.0435 23.3333 23.3335 29.0433 23.3335 36.087V63.9131C23.3335 70.9567 29.0435 76.6667 36.0871 76.6667H73.1886C75.1096 76.6667 76.6668 75.1094 76.6668 73.1884C76.6668 71.2674 75.1096 69.7102 73.1886 69.7102H36.0871C32.8855 69.7102 30.29 67.1147 30.29 63.9131V36.087C30.29 32.8853 32.8855 30.2899 36.0871 30.2899H73.1886C75.1096 30.2899 76.6668 28.7326 76.6668 26.8116C76.6668 24.8906 75.1096 23.3333 73.1886 23.3333H36.0871Z" fill="white"/>
<path d="M34.9277 58.116V65.0725H74.348V58.116H34.9277Z" fill="white"/>
<path d="M34.9277 46.5217H74.348V53.4783H34.9277V46.5217Z" fill="white"/>
<path d="M34.9277 34.9275V41.8841H74.348V34.9275H34.9277Z" fill="white"/>
</svg>
